<svg width="800px" height="800px" viewBox="0 0 50 50" xmlns="http://www.w3.org/2000/svg">
  <defs>
    <linearGradient id="cv-gradient" x1="0%" y1="0%" x2="100%" y2="0%">
      <stop offset="0%" stop-color="#2D9CDB"/>
      <stop offset="100%" stop-color="#9B51E0"/>
    </linearGradient>
  </defs>
  <rect width="50" height="50" fill="#000" rx="10"/>
  <path d="M48,8H12C5.935,8,1,12.935,1,19v22c0,0.552,0.448,1,1,1h36c6.065,0,11-4.935,11-11V9C49,8.448,48.552,8,48,8z M21.625,20H15 v4h6v2h-6v6h-2V18h8.625V20z M38,32h-2v-9.828L31.875,32h-1.693L26,22.076V32h-2V18h2.337l4.691,11.225L35.704,18H38V32z" fill="url(#cv-gradient)"/>
</svg>
